<?xml version="1.0" encoding="UTF-8" standalone="no"?>
<!DOCTYPE svg PUBLIC "-//W3C//DTD SVG 1.1//EN" "http://www.w3.org/Graphics/SVG/1.1/DTD/svg11.dtd">
<svg width="100%" height="100%" viewBox="0 0 972 1502" version="1.1" xmlns="http://www.w3.org/2000/svg" xmlns:xlink="http://www.w3.org/1999/xlink" xml:space="preserve" xmlns:serif="http://www.serif.com/" style="fill-rule:evenodd;clip-rule:evenodd;stroke-linecap:round;stroke-linejoin:round;stroke-miterlimit:1.5;">
    <g transform="matrix(1,0,0,1,-6778.68,-1467.39)">
        <g transform="matrix(0.373567,0,0,0.373567,5808.59,497.291)">
            <g transform="matrix(1,0,0,1,1417.28,0)">
                <rect x="1180.9" y="2598.2" width="1181.13" height="1181.06" style="fill:rgb(169,169,179);stroke:rgb(169,169,179);stroke-width:2.68px;"/>
            </g>
            <g transform="matrix(1,0,0,1,1417.28,0)">
                <rect x="2598.17" y="2598.2" width="1181.54" height="1181.06" style="fill:rgb(169,169,179);stroke:rgb(169,169,179);stroke-width:2.68px;"/>
            </g>
            <g transform="matrix(1,0,0,1,1417.28,0)">
                <rect x="2598.17" y="4016.07" width="1181.54" height="1181.1" style="fill:rgb(169,169,179);stroke:rgb(169,169,179);stroke-width:2.68px;"/>
            </g>
            <g transform="matrix(1,0,0,1,1417.28,0)">
                <rect x="1180.9" y="5432.72" width="1181.13" height="1181.42" style="fill:rgb(169,169,179);stroke:rgb(169,169,179);stroke-width:2.68px;"/>
            </g>
            <g transform="matrix(1,0,0,1,1417.28,0)">
                <path d="M2362.03,4016.07L1180.9,4016.07L1180.9,5197.17L2362.03,5197.17L2362.03,4016.07ZM1325.89,4161.07L1325.89,5052.17L2217.03,5052.17L2217.03,4161.07L1325.89,4161.07Z" style="fill:rgb(169,169,179);"/>
                <rect x="1180.9" y="4016.07" width="1181.13" height="1181.1" style="fill:rgb(169,169,179);fill-opacity:0;"/>
            </g>
        </g>
    </g>
</svg>
