<?xml version="1.0" standalone="no"?>
<!DOCTYPE svg PUBLIC "-//W3C//DTD SVG 20010904//EN"
 "http://www.w3.org/TR/2001/REC-SVG-20010904/DTD/svg10.dtd">
<svg version="1.0" xmlns="http://www.w3.org/2000/svg"
 width="600.000000pt" height="600.000000pt" viewBox="0 0 600.000000 600.000000"
 preserveAspectRatio="xMidYMid meet">
<metadata>
Created by potrace 1.11, written by Peter Selinger 2001-2013
</metadata>
<g transform="translate(0.000000,600.000000) scale(0.100000,-0.100000)"
fill="#000000" stroke="none">
<path d="M1060 5116 l0 -884 883 2 882 1 1 882 0 881 -883 1 -883 0 0 -883z"/>
<path d="M3177 5992 c-2 -4 -3 -401 -3 -882 l1 -875 883 -1 882 -2 -2 882 -3
881 -877 2 c-483 1 -879 -1 -881 -5z"/>
<path d="M1328 3882 l-267 -2 0 -880 c0 -484 3 -880 7 -881 39 -4 1741 -1
1748 3 10 6 12 1743 2 1753 -6 6 -1074 11 -1490 7z m1273 -221 c9 -1 9 -1321
0 -1322 -3 -1 -302 -2 -663 -3 l-658 -2 -1 31 c0 40 0 1243 0 1275 l1 25 658
-1 c361 -1 660 -2 663 -3z"/>
<path d="M3179 3880 c-4 -12 -5 -1746 -2 -1755 2 -7 283 -11 883 -11 l880 1
-3 884 -2 885 -877 1 c-483 0 -879 -2 -879 -5z"/>
<path d="M1060 885 l0 -884 883 0 883 0 -1 882 0 882 -882 2 -883 1 0 -883z"/>
</g>
</svg>
